HIERARCHY
ROOT Hips
{
	OFFSET 62.890800 8.863803 43.568401
	CHANNELS 6 Xposition Yposition Zposition Zrotation Xrotation Yrotation
	JOINT Chest
	{
		OFFSET -0.160400 1.630001 7.806301
		CHANNELS 6 Xposition Yposition Zposition Zrotation Xrotation Yrotation
		JOINT Chest2
		{
			OFFSET 0.000000 0.000000 3.197998
			CHANNELS 6 Xposition Yposition Zposition Zrotation Xrotation Yrotation
			JOINT Neck
			{
				OFFSET 0.000000 0.000001 7.440701
				CHANNELS 6 Xposition Yposition Zposition Zrotation Xrotation Yrotation
				JOINT Head
				{
					OFFSET 0.000000 0.000000 2.173901
					CHANNELS 6 Xposition Yposition Zposition Zrotation Xrotation Yrotation
					End Site
					{
						OFFSET 0.000000 0.000001 10.420303
					}
				}
			}
			JOINT LeftCollar
			{
				OFFSET 2.426399 -1.880099 4.759399
				CHANNELS 6 Xposition Yposition Zposition Zrotation Xrotation Yrotation
				JOINT LeftShoulder
				{
					OFFSET 4.420197 0.000000 0.000000
					CHANNELS 6 Xposition Yposition Zposition Zrotation Xrotation Yrotation
					JOINT LeftElbow
					{
						OFFSET 0.000000 -0.000001 -10.347099
						CHANNELS 6 Xposition Yposition Zposition Zrotation Xrotation Yrotation
						JOINT LeftWrist
						{
							OFFSET 0.000000 -0.000001 -12.496300
							CHANNELS 6 Xposition Yposition Zposition Zrotation Xrotation Yrotation
							End Site
							{
								OFFSET 0.000000 0.000000 -2.173901
							}
						}
					}
				}
			}
			JOINT RightCollar
			{
				OFFSET -2.781502 -1.903799 5.072601
				CHANNELS 6 Xposition Yposition Zposition Zrotation Xrotation Yrotation
				JOINT RightShoulder
				{
					OFFSET -4.012100 0.000000 0.000000
					CHANNELS 6 Xposition Yposition Zposition Zrotation Xrotation Yrotation
					JOINT RightElbow
					{
						OFFSET 0.000000 -0.000001 -10.346600
						CHANNELS 6 Xposition Yposition Zposition Zrotation Xrotation Yrotation
						JOINT RightWrist
						{
							OFFSET 0.000000 -0.000001 -12.562599
							CHANNELS 6 Xposition Yposition Zposition Zrotation Xrotation Yrotation
							End Site
							{
								OFFSET 0.000000 0.000000 -2.173901
							}
						}
					}
				}
			}
		}
	}
	JOINT LeftHip
	{
		OFFSET 2.047997 -0.047200 -2.693199
		CHANNELS 6 Xposition Yposition Zposition Zrotation Xrotation Yrotation
		JOINT LeftKnee
		{
			OFFSET 0.000000 -0.000001 -18.824400
			CHANNELS 6 Xposition Yposition Zposition Zrotation Xrotation Yrotation
			JOINT LeftAnkle
			{
				OFFSET 0.000000 -0.000002 -19.078199
				CHANNELS 6 Xposition Yposition Zposition Zrotation Xrotation Yrotation
				End Site
				{
					OFFSET 0.000000 -9.342100 0.000001
				}
			}
		}
	}
	JOINT RightHip
	{
		OFFSET -2.129898 -0.022300 -2.538300
		CHANNELS 6 Xposition Yposition Zposition Zrotation Xrotation Yrotation
		JOINT RightKnee
		{
			OFFSET 0.000000 -0.000001 -18.644600
			CHANNELS 6 Xposition Yposition Zposition Zrotation Xrotation Yrotation
			JOINT RightAnkle
			{
				OFFSET 0.000000 -0.000002 -18.801399
				CHANNELS 6 Xposition Yposition Zposition Zrotation Xrotation Yrotation
				End Site
				{
					OFFSET 0.000000 -8.914600 0.000001
				}
			}
		}
	}
}
MOTION
Frames: 5
Frame Time: 0.041667
65.357201 36.322411 44.590073 -451.552494 6.935405 -0.439271 -0.160403 1.629993 7.806306 -18.121206 2.326440 0.608254 0.000013 -0.000004 3.197997 3.898882 -4.475049 0.204654 -0.000002 -0.000007 7.440691 40.290142 3.575108 -19.902481 -0.000001 0.000002 2.173916 4.178575 2.187277 5.577792 2.426404 -1.880105 4.759394 -169.817108 185.054632 -188.099503 4.420190 -0.000006 -0.000004 -4.748207 11.896679 -113.247576 -0.000005 0.000004 -10.347104 273.086099 -161.848176 -506.905549 0.000000 0.000001 -12.496300 -257.429912 8.810063 348.276427 -2.781504 -1.903804 5.072599 -186.672321 -185.393546 184.460938 -4.012098 0.000001 0.000007 29.139749 -22.269470 493.945948 -0.000012 0.000003 -10.346612 -417.180742 -19.553372 -28.649563 -0.000010 -0.000005 -12.562595 1907.351199 -4.799305 40.074632 2.047998 -0.047205 -2.693193 350.293382 -7.344797 -3.762870 -0.000000 -0.000010 -18.824408 190.915276 160.805425 -161.943266 -0.000005 0.000000 -19.078201 -356.864134 5.831744 7.828423 -2.129896 -0.022303 -2.538292 -458.550815 -45.524939 -51.053202 0.000006 0.000003 -18.644608 311.982114 126.391708 72.326219 0.000002 -0.000001 -18.801392 7.704789 22.920276 -50.160684
65.427101 36.243805 44.551773 -451.114023 7.338727 -0.139888 -0.160406 1.630007 7.806302 -18.558966 2.115924 0.424240 0.000017 0.000003 3.198003 4.111735 -4.500902 0.210481 -0.000006 0.000010 7.440702 41.316504 3.360959 -20.709381 -0.000001 0.000008 2.173903 4.252585 2.472745 5.547945 2.426400 -1.880086 4.759400 -168.502379 185.225414 -188.799447 4.420190 0.000002 -0.000005 -5.478155 10.788720 -114.264659 -0.000004 0.000006 -10.347098 272.954522 -164.263686 -508.816745 0.000009 -0.000004 -12.496298 -256.030187 9.577001 347.235206 -2.781502 -1.903790 5.072612 -187.325738 -185.162098 184.595752 -4.012090 0.000006 -0.000000 27.552785 -21.842790 495.123746 0.000009 -0.000002 -10.346611 -414.563823 -19.250690 -26.319661 0.000009 0.000001 -12.562598 1905.847901 -2.993137 42.801196 2.047999 -0.047200 -2.693194 349.711068 -7.281298 -3.943963 -0.000005 0.000003 -18.824400 191.864249 161.632247 -162.166081 -0.000003 -0.000008 -19.078199 -357.453169 5.722284 7.431685 -2.129900 -0.022299 -2.538298 -462.804001 -44.858808 -54.655426 -0.000006 -0.000004 -18.644604 315.692600 129.035415 67.227619 0.000003 -0.000003 -18.801401 6.932168 21.540228 -53.589941
65.495300 36.176506 44.530174 -450.708009 7.642100 0.020299 -0.160406 1.630001 7.806314 -18.900390 1.989876 0.400481 0.000004 0.000014 3.197999 4.310302 -4.548890 0.216636 -0.000011 -0.000001 7.440696 42.101071 3.312924 -21.369249 -0.000002 0.000004 2.173908 4.359584 2.747605 5.564466 2.426398 -1.880100 4.759396 -167.123405 185.407657 -189.287997 4.420196 0.000007 0.000006 -6.824862 9.003023 -114.930268 0.000002 0.000007 -10.347097 272.106895 -165.904052 -510.351953 0.000010 -0.000003 -12.496297 -255.479620 9.971547 346.601993 -2.781510 -1.903800 5.072598 -187.885732 -184.974200 184.693656 -4.012102 0.000001 0.000002 26.209861 -21.568008 495.943150 -0.000005 0.000003 -10.346588 -412.662053 -18.775365 -24.333322 0.000014 0.000001 -12.562585 1904.553116 -1.567875 44.382993 2.047998 -0.047194 -2.693190 349.476464 -7.336655 -4.027996 0.000009 -0.000001 -18.824404 192.505644 162.126165 -162.325238 -0.000001 -0.000003 -19.078199 -357.931228 5.704781 7.067780 -2.129896 -0.022297 -2.538293 -466.226636 -44.300545 -57.527432 -0.000003 0.000005 -18.644606 318.344954 131.227550 63.126972 0.000002 -0.000001 -18.801401 6.764531 20.670191 -55.955645
65.559998 36.116409 44.524868 -450.376445 7.869969 0.194094 -0.160407 1.629998 7.806304 -19.088982 1.956470 0.368538 0.000009 0.000000 3.198003 4.457239 -4.578152 0.221313 -0.000010 -0.000001 7.440697 42.731613 3.396274 -21.803852 -0.000009 -0.000002 2.173913 4.439509 2.964276 5.552260 2.426401 -1.880097 4.759401 -165.815656 185.616538 -189.606980 4.420191 0.000004 -0.000004 -8.549068 6.720766 -115.301188 -0.000007 -0.000005 -10.347089 270.230724 -166.814625 -511.538057 -0.000001 -0.000008 -12.496303 -255.364162 10.095035 346.290045 -2.781511 -1.903797 5.072602 -188.593367 -184.749090 185.575871 -4.012094 0.000000 -0.000010 24.997780 -21.709562 495.643332 -0.000005 -0.000001 -10.346596 -411.358169 -18.362004 -22.840293 0.000006 -0.000002 -12.562576 1903.658744 -1.016031 45.131247 2.047998 -0.047199 -2.693202 349.434117 -7.428695 -4.143957 -0.000004 0.000007 -18.824406 193.058603 162.396476 -162.449301 -0.000006 0.000000 -19.078199 -358.469091 5.712401 6.793378 -2.129901 -0.022294 -2.538304 -468.887460 -43.755394 -59.739041 -0.000001 0.000000 -18.644608 320.188886 133.055459 59.925443 0.000010 0.000009 -18.801397 6.929375 20.181245 -57.848499
65.618896 36.061203 44.530876 -450.142306 8.035374 0.370334 -0.160409 1.629990 7.806304 -19.110630 1.975807 0.317957 0.000003 0.000001 3.198010 4.539078 -4.581355 0.223925 0.000000 -0.000006 7.440695 43.196667 3.609553 -22.096313 -0.000004 0.000006 2.173907 4.533762 3.124292 5.548971 2.426411 -1.880101 4.759405 -164.753670 185.817755 -189.717233 4.420202 0.000001 0.000008 -10.320865 4.201319 -115.594026 -0.000010 0.000006 -10.347088 267.360679 -167.203796 -512.327025 0.000002 -0.000009 -12.496296 -255.525245 9.912886 346.381815 -2.781496 -1.903805 5.072606 -188.824582 -184.510881 185.423271 -4.012087 0.000002 -0.000013 23.957232 -21.452977 496.040248 0.000002 -0.000004 -10.346599 -410.490080 -18.000979 -21.598629 0.000005 -0.000006 -12.562594 1902.547991 -0.762426 45.305031 2.047990 -0.047209 -2.693198 349.283853 -7.448890 -4.258710 -0.000001 0.000004 -18.824404 193.660506 162.664111 -162.545907 -0.000001 -0.000003 -19.078199 -358.883083 5.718454 6.701935 -2.129904 -0.022316 -2.538299 -471.079131 -43.111772 -61.532300 -0.000007 -0.000002 -18.644600 321.585742 134.652999 57.475673 0.000002 0.000006 -18.801399 7.067528 19.803519 -59.263236
